<?xml version="1.0" encoding="iso-8859-1"?>
<!-- Generator: Adobe Illustrator 19.0.0, SVG Export Plug-In . SVG Version: 6.00 Build 0)  -->
<svg xmlns="http://www.w3.org/2000/svg" xmlns:xlink="http://www.w3.org/1999/xlink" version="1.1" id="Layer_1" x="0px" y="0px" viewBox="0 0 512 512" style="enable-background:new 0 0 512 512;" xml:space="preserve" width="512px" height="512px">
<g>
	<g>
		<path d="M0,111.81v96.622l16.552-0.93c1.037-0.059,1.951-0.087,2.795-0.087c26.79,0,48.585,21.794,48.585,48.585    s-21.794,48.585-48.585,48.585c-0.829,0-1.747-0.028-2.809-0.088L0,303.581v96.608h512V111.81H0z M186.092,350.8h-31.347v-21.287    h31.347V350.8z M186.092,308.226h-31.347v-21.287h31.347V308.226z M186.092,265.653h-31.347v-21.287h31.347V265.653z     M186.092,223.079h-31.347v-21.287h31.347V223.079z M186.092,180.506h-31.347v-21.287h31.347V180.506z M410.027,348.909    l-62.575-32.897l-62.574,32.898l11.952-69.679l-50.624-49.345l69.96-10.166l31.286-63.394l31.287,63.394l69.959,10.166    l-50.623,49.345L410.027,348.909z" fill="#FFFFFF"/>
	</g>
</g>
<g>
</g>
<g>
</g>
<g>
</g>
<g>
</g>
<g>
</g>
<g>
</g>
<g>
</g>
<g>
</g>
<g>
</g>
<g>
</g>
<g>
</g>
<g>
</g>
<g>
</g>
<g>
</g>
<g>
</g>
</svg>
