<?xml version="1.0" encoding="iso-8859-1"?>
<!-- Generator: Adobe Illustrator 19.0.0, SVG Export Plug-In . SVG Version: 6.00 Build 0)  -->
<svg version="1.1" id="Layer_1" xmlns="http://www.w3.org/2000/svg" xmlns:xlink="http://www.w3.org/1999/xlink" x="0px" y="0px"
	 viewBox="0 0 512 512" style="enable-background:new 0 0 512 512;" xml:space="preserve">
<path style="fill:#57555C;" d="M0,111.812v96.622l16.551-0.93c1.034-0.063,1.954-0.094,2.8-0.094
	c26.791,0,48.577,21.797,48.577,48.588s-21.786,48.588-48.577,48.588c-0.836,0-1.755-0.031-2.811-0.094L0,303.582v96.611h512
	V111.812C512,111.812,0,111.812,0,111.812z"/>
<rect x="256" y="111.807" style="fill:#3C3A41;" width="256" height="288.381"/>
<g>
	<rect x="154.749" y="329.511" style="fill:#D9D8DB;" width="31.347" height="21.287"/>
	<rect x="154.749" y="369.959" style="fill:#D9D8DB;" width="31.347" height="21.287"/>
	<rect x="154.749" y="286.942" style="fill:#D9D8DB;" width="31.347" height="21.287"/>
	<rect x="154.749" y="244.362" style="fill:#D9D8DB;" width="31.347" height="21.287"/>
	<rect x="154.749" y="201.793" style="fill:#D9D8DB;" width="31.347" height="21.287"/>
	<rect x="154.749" y="159.214" style="fill:#D9D8DB;" width="31.347" height="21.287"/>
	<rect x="154.749" y="119.884" style="fill:#D9D8DB;" width="31.347" height="21.287"/>
</g>
<path style="fill:#FFDB2D;" d="M459.497,229.885l-69.956-10.167l-31.295-63.394l-31.284,63.394l-69.956,10.167l50.625,49.34
	l-11.954,69.684l62.568-32.904l62.579,32.904l-11.954-69.684L459.497,229.885z"/>
<polygon style="fill:#FFA733;" points="408.872,279.225 420.825,348.91 358.246,316.006 358.246,156.325 389.541,219.719 
	459.497,229.885 "/>
<g>
</g>
<g>
</g>
<g>
</g>
<g>
</g>
<g>
</g>
<g>
</g>
<g>
</g>
<g>
</g>
<g>
</g>
<g>
</g>
<g>
</g>
<g>
</g>
<g>
</g>
<g>
</g>
<g>
</g>
</svg>
