<?xml version="1.0" encoding="iso-8859-1"?>
<!-- Generator: Adobe Illustrator 19.0.0, SVG Export Plug-In . SVG Version: 6.00 Build 0)  -->
<svg xmlns="http://www.w3.org/2000/svg" xmlns:xlink="http://www.w3.org/1999/xlink" version="1.1" id="Capa_1" x="0px" y="0px" viewBox="0 0 463.872 463.872" style="enable-background:new 0 0 463.872 463.872;" xml:space="preserve" width="512px" height="512px">
<g>
	<g>
		<path d="M271.872,7.952v15.984h-16V7.952l-127.84-0.016L0,135.968l128.032,127.968h121.152l16.008-16h-9.32v-16h16v9.32    l144-143.944V206.56l-57.44,57.376h105.44V7.968L271.872,7.952z M148.352,158.592c-12.496,12.496-32.752,12.496-45.248,0    c-12.496-12.496-12.496-32.752,0-45.248c12.496-12.496,32.752-12.496,45.248,0C160.848,125.84,160.848,146.096,148.352,158.592z     M271.872,215.936h-16v-16h16V215.936z M271.872,183.936h-16v-16h16V183.936z M271.872,151.936h-16v-16h16V151.936z     M271.872,119.936h-16v-16h16V119.936z M271.872,87.936h-16v-16h16V87.936z M271.872,55.936h-16v-16h16V55.936z" fill="#FFFFFF"/>
	</g>
</g>
<g>
	<g>
		<path d="M367.872,327.936c-9.6,0-17.6,1.6-25.6,6.4l-38.4-38.4l96-96v-64l-198.4,198.4c-8-4.8-16-6.4-25.6-6.4    c-35.2,0-64,28.8-64,64s28.8,64,64,64s64-28.8,64-64c0-9.6-1.6-17.6-6.4-25.6l38.4-38.4l38.4,38.4c-4.8,8-6.4,16-6.4,25.6    c0,35.2,28.8,64,64,64s64-28.8,64-64S403.072,327.936,367.872,327.936z M175.872,423.936c-17.6,0-32-14.4-32-32    c0-17.6,14.4-32,32-32c17.6,0,32,14.4,32,32C207.872,409.536,193.472,423.936,175.872,423.936z M367.872,423.936    c-17.6,0-32-14.4-32-32c0-17.6,14.4-32,32-32c17.6,0,32,14.4,32,32C399.872,409.536,385.472,423.936,367.872,423.936z" fill="#FFFFFF"/>
	</g>
</g>
<g>
</g>
<g>
</g>
<g>
</g>
<g>
</g>
<g>
</g>
<g>
</g>
<g>
</g>
<g>
</g>
<g>
</g>
<g>
</g>
<g>
</g>
<g>
</g>
<g>
</g>
<g>
</g>
<g>
</g>
</svg>
